<?xml version="1.0" standalone="no"?>
<!DOCTYPE svg PUBLIC "-//W3C//DTD SVG 20010904//EN"
 "http://www.w3.org/TR/2001/REC-SVG-20010904/DTD/svg10.dtd">
<svg version="1.0" xmlns="http://www.w3.org/2000/svg"
 width="113.000000pt" height="150.000000pt" viewBox="0 0 113.000000 150.000000"
 preserveAspectRatio="xMidYMid meet">

<g transform="translate(0.000000,150.000000) scale(0.100000,-0.100000)"
fill="#000000" stroke="none">
<path d="M10 745 l0 -746 555 1 555 1 0 745 0 744 -360 0 -360 0 0 -196 c0
-187 1 -195 19 -189 43 13 136 24 144 16 4 -4 7 -32 5 -62 l-3 -54 -53 -11
c-95 -21 -112 -32 -112 -71 0 -24 4 -33 12 -29 182 76 352 19 440 -146 34 -64
33 -203 -1 -272 -117 -238 -455 -238 -572 0 -21 43 -25 67 -29 194 l-5 145
-21 -55 c-56 -145 -31 -289 71 -407 45 -53 159 -110 235 -119 107 -12 238 40
311 124 44 49 87 144 95 208 l6 54 64 0 c74 0 74 2 50 -112 -36 -165 -154
-308 -305 -368 -330 -130 -685 116 -685 475 0 136 61 284 153 369 l31 30 0
238 0 238 -120 0 -120 0 0 -745z"/>
<path d="M497 810 c-82 -25 -141 -109 -141 -200 1 -67 20 -107 74 -153 106
-91 268 -58 326 66 37 81 28 154 -29 223 -53 63 -146 89 -230 64z"/>
</g>
</svg>
